<svg width="64" height="64" viewBox="0 0 64 64" fill="none" xmlns="http://www.w3.org/2000/svg">
<circle cx="32" cy="32" r="32" fill="#2F80ED"/>
<mask id="mask0_195_67" style="mask-type:alpha" maskUnits="userSpaceOnUse" x="0" y="0" width="64" height="64">
<circle cx="32" cy="32" r="32" fill="#C4C4C4"/>
</mask>
<g mask="url(#mask0_195_67)">
<path d="M34.3795 61.459L36.0904 70.4409" stroke="white" stroke-linecap="round"/>
<path fill-rule="evenodd" clip-rule="evenodd" d="M35.8866 53.1913C37.697 52.7527 41.4987 52.4895 42.2229 54.9459C42.947 57.4023 41.9212 58.6012 41.3177 58.8936C44.7875 61.3793 51.2747 68.2806 49.4643 76.0007H31.8133V54.9459L35.8866 53.1913ZM27.7399 53.1915C25.9296 52.7529 22.1278 52.4897 21.4037 54.9461C20.6796 57.4025 21.7054 58.6014 22.3089 58.8938C18.839 61.3795 12.3519 68.2808 14.1623 76.0009H31.8133V54.9461L27.7399 53.1915Z" fill="#333333"/>
<path d="M34.3794 63.1697L42.0782 58.4648L42.9337 60.1757L34.3794 63.1697Z" fill="#1D1D1D"/>
<mask id="mask1_195_67" style="mask-type:alpha" maskUnits="userSpaceOnUse" x="13" y="52" width="37" height="25">
<path fill-rule="evenodd" clip-rule="evenodd" d="M35.8866 53.1913C37.697 52.7527 41.4987 52.4895 42.2229 54.9459C42.947 57.4023 41.9212 58.6012 41.3177 58.8936C44.7875 61.3793 51.2747 68.2806 49.4643 76.0007H31.8133V54.9459L35.8866 53.1913ZM27.7399 53.1915C25.9296 52.7529 22.1278 52.4897 21.4037 54.9461C20.6796 57.4025 21.7054 58.6014 22.3089 58.8938C18.839 61.3795 12.3519 68.2808 14.1623 76.0009H31.8133V54.9461L27.7399 53.1915Z" fill="#333333"/>
</mask>
<g mask="url(#mask1_195_67)">
<path d="M29.247 63.1697L21.5482 58.4648L20.6928 60.1757L29.247 63.1697Z" fill="#1D1D1D"/>
</g>
<path d="M29.247 61.8857L27.5362 70.8677" stroke="white" stroke-linecap="round"/>
<rect x="25.8253" y="41.7832" width="11.9759" height="17.9639" rx="5.98795" fill="#F5B1B1"/>
<path d="M43.7891 31.5182C43.7891 35.2977 44.5677 38.7893 47.6385 38.7893C50.7093 38.7893 53.6265 34.4422 53.6265 30.6628C53.6265 26.8833 52.4202 24.6748 49.3494 24.6748C46.2785 24.6748 43.7891 27.7387 43.7891 31.5182Z" fill="#F5B1B1"/>
<path d="M19.8373 31.5192C19.8373 35.2986 19.0588 38.7902 15.988 38.7902C12.9171 38.7902 10 34.4432 10 30.6637C10 26.8842 11.2063 24.6758 14.2771 24.6758C17.3479 24.6758 19.8373 27.7397 19.8373 31.5192Z" fill="#F5B1B1"/>
<rect x="14.7048" y="10.1328" width="34.2169" height="41.9157" rx="17.1084" fill="#FFD9CB"/>
<path d="M31.8132 46.9159C34.5221 47.3436 36.5181 46.0604 37.3735 43.9219" stroke="#EB5757" stroke-linecap="round"/>
<rect x="30.9578" y="37.5059" width="3.42169" height="5.98795" rx="1.71084" fill="#F5B1B1"/>
<path d="M34.0242 31.2402C34.0242 29.3072 35.5912 27.7402 37.5242 27.7402H42.3555C44.2885 27.7402 45.8555 29.3072 45.8555 31.2402V33.2161C45.8555 36.2537 43.3931 38.7161 40.3555 38.7161H39.5242C36.4866 38.7161 34.0242 36.2537 34.0242 33.2161V31.2402Z" fill="white" fill-opacity="0.3" stroke="#333333"/>
<path d="M17.7712 31.2402C17.7712 29.3072 19.3382 27.7402 21.2712 27.7402H26.1025C28.0355 27.7402 29.6025 29.3072 29.6025 31.2402V33.2161C29.6025 36.2537 27.1401 38.7161 24.1025 38.7161H23.2712C20.2336 38.7161 17.7712 36.2537 17.7712 33.2161V31.2402Z" fill="white" fill-opacity="0.3" stroke="#333333"/>
<circle cx="24.259" cy="32.374" r="2" fill="#092C4C"/>
<circle cx="39.259" cy="32.374" r="2" fill="#092C4C"/>
<path d="M34.3795 24.2468C35.6626 23.1062 39.1699 21.5094 42.9337 24.2468" stroke="#282828" stroke-linecap="round"/>
<path d="M20.6927 24.2468C21.9759 23.1062 25.4831 21.5094 29.247 24.2468" stroke="#282828" stroke-linecap="round"/>
<path d="M18.9819 15.6929C18.0157 14.1477 13.7157 20.3973 13.7157 20.3973C13.7157 20.3973 12.4326 24.6751 13.288 27.6691C14.1434 30.663 14.5713 35.7956 14.5713 35.7956C14.5713 35.7956 15.4266 29.8854 17.1374 28.0968C18.8483 26.3082 20.2559 17.7302 18.9819 15.6929Z" fill="#333333"/>
<path d="M12.1388 23.8196C19.8305 23.5317 22.07 15.6459 24.5423 13.1268C26.7399 10.8235 29.1704 11.824 27.7969 11.2242C16.1495 6.61793 12.5051 17.7018 12.1388 23.8196Z" fill="#092C4C"/>
<path d="M43.7891 20.8254C44.7554 19.2802 49.7772 20.3971 49.7772 20.3971C49.7772 20.3971 51.0603 24.6749 50.2049 27.6689C49.3494 30.6629 48.9216 35.7954 48.9216 35.7954C48.9216 35.7954 48.0663 29.8852 46.3555 28.0966C44.6446 26.308 42.5152 22.8627 43.7891 20.8254Z" fill="#333333"/>
<path d="M50.6326 22.9639C37.4469 22.586 25.6739 15.879 21.4356 12.5727C17.6683 9.54969 21.4356 7.21963 23.7902 6.43248C43.7572 0.386723 50.0047 14.9343 50.6326 22.9639Z" fill="#092C4C"/>
</g>
</svg>
