<svg width="1920" height="1080" viewBox="0 0 1920 1080" fill="none" xmlns="http://www.w3.org/2000/svg">
<path opacity="0.3" d="M1 0H487.582H1920V1080H1V0Z" fill="url(#paint0_linear_577_4902)"/>
<path opacity="0.2" d="M1217.26 1104L1462.48 857.439L1666.16 635L1895.3 561.3L1355.28 1104H1217.26Z" fill="url(#paint1_linear_577_4902)"/>
<path d="M1305.55 896.299L1580.25 618.92H1641.89L1371.21 896.299H1305.55Z" fill="url(#paint2_linear_577_4902)"/>
<path d="M1554.94 647.059C1630.87 572.912 1765.07 424.549 1767.21 421.333L1830.77 426.459L1609.68 653.016L1554.94 647.059Z" fill="url(#paint3_linear_577_4902)"/>
<path d="M1530.82 856.099H1410.22L1889.94 367L2010.54 379.06L1530.82 856.099Z" fill="url(#paint4_linear_577_4902)"/>
<path d="M1125.81 1105.34L1302.69 929.798H1364.33L1192.81 1105.34H1125.81Z" fill="url(#paint5_linear_577_4902)"/>
<path d="M1634 943.198L1470.52 1104H1356.62L1516.08 943.198H1634Z" fill="url(#paint6_linear_577_4902)"/>
<path d="M1655.44 917.739H1536.18L2064.14 389.78L2163.3 423.28L1655.44 917.739Z" fill="url(#paint7_linear_577_4902)"/>
<path d="M1844.78 817.239H1710.38L2131.14 393.8L2223.4 421.333L1844.78 817.239Z" fill="url(#paint8_linear_577_4902)"/>
<path opacity="0.48" d="M2253.08 442.04L1600.5 1102.66H1822.94L2275.86 629.639L2253.08 442.04Z" fill="url(#paint9_linear_577_4902)"/>
<path d="M2101.66 872.179H1982.4L1768 1105.34H1887.26L2101.66 872.179Z" fill="url(#paint10_linear_577_4902)"/>
<defs>
<linearGradient id="paint0_linear_577_4902" x1="1037.9" y1="1139" x2="-385.759" y2="440.129" gradientUnits="userSpaceOnUse">
<stop stop-color="#1F8EFA" stop-opacity="0.46"/>
<stop offset="1" stop-color="white" stop-opacity="0"/>
</linearGradient>
<linearGradient id="paint1_linear_577_4902" x1="1218.78" y1="1038.58" x2="1792.69" y2="677.076" gradientUnits="userSpaceOnUse">
<stop stop-color="#1F8EFA" stop-opacity="0.48"/>
<stop offset="1" stop-color="#63E3FF" stop-opacity="0"/>
</linearGradient>
<linearGradient id="paint2_linear_577_4902" x1="1306.3" y1="862.862" x2="1595.77" y2="685.906" gradientUnits="userSpaceOnUse">
<stop stop-color="#1F8EFA" stop-opacity="0.48"/>
<stop offset="1" stop-color="#63E3FF" stop-opacity="0"/>
</linearGradient>
<linearGradient id="paint3_linear_577_4902" x1="1555.56" y1="625.087" x2="1795.29" y2="481.195" gradientUnits="userSpaceOnUse">
<stop stop-color="#1F8EFA" stop-opacity="0.48"/>
<stop offset="1" stop-color="#63E3FF" stop-opacity="0"/>
</linearGradient>
<linearGradient id="paint4_linear_577_4902" x1="1411.56" y1="797.139" x2="1924.78" y2="479.56" gradientUnits="userSpaceOnUse">
<stop stop-color="#1F8EFA" stop-opacity="0.48"/>
<stop offset="1" stop-color="#63E3FF" stop-opacity="0"/>
</linearGradient>
<linearGradient id="paint5_linear_577_4902" x1="1126.34" y1="1084.18" x2="1318.27" y2="952.7" gradientUnits="userSpaceOnUse">
<stop stop-color="#1F8EFA" stop-opacity="0.48"/>
<stop offset="1" stop-color="#63E3FF" stop-opacity="0"/>
</linearGradient>
<linearGradient id="paint6_linear_577_4902" x1="1357.24" y1="1084.61" x2="1543.96" y2="922.232" gradientUnits="userSpaceOnUse">
<stop stop-color="#1F8EFA" stop-opacity="0.48"/>
<stop offset="1" stop-color="#63E3FF" stop-opacity="0"/>
</linearGradient>
<linearGradient id="paint7_linear_577_4902" x1="1537.58" y1="854.094" x2="2083.3" y2="527.294" gradientUnits="userSpaceOnUse">
<stop stop-color="#1F8EFA" stop-opacity="0.48"/>
<stop offset="1" stop-color="#63E3FF" stop-opacity="0"/>
</linearGradient>
<linearGradient id="paint8_linear_577_4902" x1="1802.41" y1="744.938" x2="2153.01" y2="495.325" gradientUnits="userSpaceOnUse">
<stop stop-color="#78BCFF"/>
<stop offset="1" stop-color="#63E3FF" stop-opacity="0"/>
</linearGradient>
<linearGradient id="paint9_linear_577_4902" x1="1602.01" y1="1023.02" x2="2232.88" y2="697.87" gradientUnits="userSpaceOnUse">
<stop stop-color="#1F8EFA" stop-opacity="0.48"/>
<stop offset="1" stop-color="#63E3FF" stop-opacity="0"/>
</linearGradient>
<linearGradient id="paint10_linear_577_4902" x1="1768.74" y1="1077.23" x2="2028.18" y2="890.058" gradientUnits="userSpaceOnUse">
<stop stop-color="#1F8EFA" stop-opacity="0.48"/>
<stop offset="1" stop-color="#63E3FF" stop-opacity="0"/>
</linearGradient>
</defs>
</svg>
